<?xml version="1.0" encoding="utf-8"?>
<!-- Generator: Adobe Illustrator 19.0.0, SVG Export Plug-In . SVG Version: 6.00 Build 0)  -->
<svg version="1.1" id="Layer_1" xmlns="http://www.w3.org/2000/svg" xmlns:xlink="http://www.w3.org/1999/xlink" x="0px" y="0px"
	 viewBox="0 0 500 500" style="enable-background:new 0 0 500 500;" xml:space="preserve">
<style type="text/css">
	.st0{fill:#329545;}
	.st1{fill:#FDD43B;}
	.st2{fill:#144A99;}
	.st3{fill:#FFFFFF;}
	.st4{fill:none;stroke:#FFFFFF;stroke-width:18;stroke-miterlimit:10;}
</style>
<g id="XMLID_1_">
	<g id="XMLID_674_">
		<path id="path1948_7_" class="st0" d="M247.4,26.3c-18.2,0.1-35.7,1.6-51,4.4c-45.2,8-53.4,24.7-53.4,55.5v40.7h106.7v13.6H143
			h-40.1c-31,0-58.2,18.6-66.7,54.1c-9.8,40.7-10.2,66,0,108.5c7.6,31.6,25.7,54.1,56.7,54.1h36.7v-48.8c0-35.2,30.5-66.3,66.7-66.3
			H303c29.7,0,53.4-24.4,53.4-54.2V86.1c0-28.9-24.4-50.7-53.4-55.5C284.6,27.6,265.6,26.2,247.4,26.3z M189.6,59
			c11,0,20,9.2,20,20.4c0,11.2-9,20.3-20,20.3c-11.1,0-20-9.1-20-20.3C169.6,68.2,178.6,59,189.6,59z"/>
		<path id="path1950_5_" class="st1" d="M369.6,140.4v47.4c0,36.7-31.2,67.7-66.7,67.7H196.4c-29.2,0-53.4,25-53.4,54.2v101.6
			c0,28.9,25.2,45.9,53.4,54.2c33.8,9.9,66.2,11.7,106.6,0c26.9-7.8,53.4-23.4,53.4-54.2v-40.7H249.7v-13.6h106.6h53.4
			c31,0,42.6-21.6,53.4-54.1c11.1-33.4,10.7-65.6,0-108.5c-7.7-30.9-22.3-54.1-53.4-54.1H369.6z M309.7,397.8c11.1,0,20,9.1,20,20.3
			c0,11.3-9,20.4-20,20.4c-11,0-20-9.2-20-20.4C289.7,406.8,298.7,397.8,309.7,397.8z"/>
		<path id="XMLID_683_" class="st2" d="M345.1,348.8c5.3-17.5,2.3-37.6-11.9-52.7c-4.1-4.3-8.8-7.9-14.1-10.7
			c-1.9-1-3.8-1.8-5.7-2.6c0,0-10.8-5.5-11.9-44.6c-0.4-13.1-0.5-29.1,6.1-41c0.9-1.7,2-3.3,3.4-4.6c7.5-6.4,15.9-10.9,21.4-19.4
			c5.6-8.7,8.6-19,8.6-29.4c0-45.4-55.5-70.8-90-41.6c-5.3,4.5-9.7,10-12.9,16.1c-5.8,10.9-7.5,22.9-5.6,34.3
			c0,0,2.6,13.2-30.7,33.9c-29.5,18.3-43.9,13.4-46.8,12.1c-8.4-5.3-18.4-8.5-29.1-8.5c-45.5,0-70.9,55.6-41.5,90.1
			c4.4,5.2,9.9,9.6,16,12.8c19.9,10.5,43.3,7.6,59.7-5.6c0,0,11.8-9.3,46.7,9.5c27.6,14.8,31.7,29.3,32.2,34.8
			c1.4,14.8,3.8,27.4,14.3,38.9C281.8,401.8,333.1,388.4,345.1,348.8z M214,281.6c-28.7-15.4-33-28.3-33.6-32.2
			c0.4-4.7,0.1-9.4-0.7-14l0.2,0.3c0,0-2.3-12.5,30.5-33c29.4-18.3,42.8-14.6,45.3-13.7c1.6,1.1,3.3,2.1,5,3
			c3.3,1.8,6.7,3.1,10.2,4.2c4,3.9,11.5,14.8,12.3,43.6c0.8,29-7.7,40.2-12.4,44.1c-4.8,2.2-9.3,5.1-13.3,8.6
			C253.1,294.1,240.5,295.9,214,281.6z"/>
		<g id="XMLID_681_">
			<path id="XMLID_682_" class="st3" d="M253.9,113.1c-15.9,17.4-16.2,42.9-0.9,57.4c-7.6-7.3-7.4-22.4,0.2-37c1-1.3,3.8-4.4,8-3
				c0.4,0.1,0.7,0.2,0.9,0.2c0.9,0.2,1.9,0.3,2.9,0.3c6.3-0.3,11.2-5.6,10.9-12c-0.1-2.8-1.3-5.3-3.1-7.3
				c14.7-9.6,31.5-10.7,38.4-4.4l0.3,0C295.7,93,270,95.5,253.9,113.1z"/>
		</g>
		<g id="XMLID_678_">
			<path id="XMLID_680_" class="st3" d="M93.7,273.7c-0.1-0.1-0.3-0.3-0.4-0.4c0.1,0.1,0.2,0.2,0.3,0.3L93.7,273.7z"/>
			<path id="XMLID_679_" class="st3" d="M94.2,215.8c-15.9,17.4-16.2,42.9-0.9,57.4c-7.6-7.3-7.4-22.5,0.2-37c1-1.3,3.8-4.4,8-3
				c0.4,0.1,0.7,0.2,0.9,0.2c0.9,0.2,1.9,0.3,2.9,0.3c6.3-0.3,11.2-5.6,10.9-12c-0.1-2.8-1.3-5.4-3.1-7.3
				c14.7-9.6,31.5-10.7,38.4-4.4l0.3,0C136,195.7,110.3,198.3,94.2,215.8z"/>
		</g>
		<g id="XMLID_675_">
			<path id="XMLID_677_" class="st3" d="M262.8,360.7c-0.1-0.1-0.3-0.3-0.4-0.4c0.1,0.1,0.2,0.2,0.3,0.3L262.8,360.7z"/>
			<path id="XMLID_676_" class="st3" d="M263.3,302.9c-15.9,17.4-16.2,42.9-0.9,57.4c-7.6-7.3-7.4-22.5,0.2-37c1-1.3,3.8-4.4,8-3
				c0.4,0.1,0.7,0.2,0.9,0.2c0.9,0.2,1.9,0.3,2.9,0.3c6.3-0.3,11.2-5.6,10.9-12c-0.1-2.8-1.3-5.3-3.1-7.3
				c14.7-9.6,31.5-10.7,38.4-4.4l0.3,0C305.1,282.7,279.3,285.3,263.3,302.9z"/>
		</g>
	</g>
	<g id="XMLID_16_">
		<rect id="XMLID_17_" x="28.7" y="26.3" class="st4" width="442.5" height="447.4"/>
		<line id="XMLID_19_" class="st4" x1="28.7" y1="364.8" x2="471.3" y2="364.8"/>
		<line id="XMLID_20_" class="st4" x1="28.7" y1="250" x2="471.3" y2="250"/>
		<line id="XMLID_25_" class="st4" x1="28.7" y1="135.2" x2="471.3" y2="135.2"/>
		<line id="XMLID_34_" class="st4" x1="360.6" y1="26.3" x2="360.6" y2="473.7"/>
		<line id="XMLID_35_" class="st4" x1="250" y1="26.3" x2="250" y2="473.7"/>
		<line id="XMLID_42_" class="st4" x1="138.4" y1="26.3" x2="138.4" y2="473.7"/>
	</g>
</g>
</svg>
